<svg width="150" height="29" viewBox="0 0 150 29" fill="none" xmlns="http://www.w3.org/2000/svg">
<g id="Group">
<path id="Vector" d="M70.4736 28.1912V0.912092H75.5152C76.2075 0.912047 76.8873 1.09795 77.4833 1.45038C78.0793 1.80281 78.5698 2.30883 78.9033 2.91557L88.7757 20.8618H88.9169V4.77788C88.9167 4.26991 89.0167 3.76691 89.211 3.29758C89.4054 2.82827 89.6902 2.40183 90.0494 2.04265C90.4085 1.68347 90.8351 1.39858 91.3042 1.20426C91.7736 1.00994 92.2766 0.910004 92.7846 0.910156H94.6663V28.1892H87.3389L76.3642 8.20275H76.2249V28.1892H70.4736V28.1912Z" fill="#04BBF2"/>
<path id="Vector_2" d="M54.3629 16.9883H40.5532C40.88 19.3728 41.553 20.8966 42.5682 21.9487C43.5835 23.0007 45.0881 23.5267 47.0741 23.5267H56.3316V28.1912H45.4961C41.8024 28.1912 38.997 27.0225 37.0799 24.6851C35.1629 22.3476 34.2043 18.9699 34.2043 14.5516C34.2043 10.1347 35.1629 6.75688 37.0799 4.4182C38.997 2.07952 41.8024 0.910821 45.4961 0.91211H56.3316V1.70693C56.3317 2.21489 56.2318 2.7179 56.0374 3.18722C55.8431 3.65654 55.5582 4.08298 55.1991 4.44216C54.84 4.80133 54.4134 5.08623 53.9442 5.28055C53.4749 5.47486 52.9719 5.5748 52.4638 5.57465H47.0741C46.4103 5.5772 45.7477 5.63609 45.0939 5.75063C44.3886 5.87513 43.7222 6.16326 43.1484 6.59186C42.4661 7.13005 41.9196 7.82095 41.553 8.60888C41.0966 9.50813 40.764 10.5485 40.5532 12.115H54.3629C54.7732 12.115 55.1668 12.278 55.4569 12.5681C55.7469 12.8583 55.91 13.2518 55.91 13.6621V15.4432C55.9094 15.8531 55.7462 16.2462 55.4561 16.5359C55.166 16.8256 54.7729 16.9883 54.3629 16.9883Z" fill="#10385B"/>
<path id="Vector_3" d="M118.637 16.9883H104.825C105.152 19.3728 105.825 20.8966 106.842 21.9487C107.86 23.0007 109.36 23.5267 111.348 23.5267H120.606V28.1912H109.77C106.077 28.1912 103.272 27.0225 101.356 24.6851C99.4402 22.3476 98.4818 18.9699 98.4805 14.5516C98.4805 10.1347 99.4391 6.75688 101.356 4.4182C103.273 2.07952 106.078 0.910821 109.77 0.91211H120.606V1.70693C120.606 2.73271 120.198 3.71648 119.473 4.44183C118.748 5.16716 117.764 5.57465 116.738 5.57465H111.348C110.685 5.5772 110.022 5.63609 109.368 5.75063C108.663 5.87513 107.996 6.16326 107.423 6.59186C106.813 7.03665 106.282 7.70899 105.827 8.60888C105.371 9.50813 105.038 10.5485 104.827 12.115H118.639C119.049 12.115 119.443 12.278 119.733 12.5681C120.023 12.8583 120.186 13.2518 120.186 13.6621V15.4432C120.185 15.8532 120.021 16.246 119.731 16.5356C119.44 16.8252 119.047 16.988 118.637 16.9883Z" fill="#10385B"/>
<path id="Vector_4" d="M60.6924 28.1912V2.84597C60.6924 2.33308 60.8962 1.84119 61.2588 1.47852C61.6214 1.11585 62.1134 0.912109 62.6262 0.912109H64.5098C65.0227 0.912109 65.5147 1.11585 65.8773 1.47852C66.2399 1.84119 66.4437 2.33308 66.4437 2.84597V28.1912H60.6924Z" fill="#04BBF2"/>
<path id="Vector_5" d="M132.516 2.72607L137.272 10.3087L142.025 2.72607C142.373 2.17103 142.857 1.71345 143.43 1.39619C144.003 1.07893 144.648 0.91237 145.303 0.912109H150L140.182 14.5516L150 28.1912H143.164L137.274 18.7945L131.383 28.1912H124.545L134.326 14.5516L124.545 0.912109H129.242C129.897 0.911991 130.541 1.07842 131.114 1.39575C131.687 1.71307 132.169 2.17087 132.516 2.72607Z" fill="#10385B"/>
<path id="Vector_6" d="M29.6055 17.0251C28.7517 15.8796 27.5722 15.0183 26.2213 14.5536C27.6697 13.9232 28.7391 13.0117 29.4295 11.8191C30.1364 10.5569 30.4935 9.12891 30.4641 7.68258C30.4874 6.65885 30.252 5.64581 29.7796 4.7373C29.3348 3.90973 28.7119 3.19112 27.9559 2.63327C27.1714 2.05977 26.2932 1.62662 25.3607 1.35305C24.3999 1.06212 23.4017 0.914204 22.398 0.914062H2.33224C1.71371 0.914114 1.12052 1.15985 0.683155 1.59722C0.245784 2.03458 5.12816e-05 2.62777 0 3.24629V5.40255H20.6111C21.9435 5.40255 22.9312 5.70681 23.5738 6.31534C24.2164 6.92386 24.5374 7.7651 24.5369 8.83903C24.5369 9.91426 24.2158 10.7619 23.5738 11.3821C22.9292 12.0009 21.9416 12.3103 20.6111 12.3103H11.6921V16.7988H20.6111C21.9435 16.7988 22.9312 17.1031 23.5738 17.7116C24.2164 18.3201 24.5374 19.1614 24.5369 20.2353C24.5369 21.3337 24.2158 22.1871 23.5738 22.7957C22.9292 23.4049 21.9416 23.7091 20.6111 23.7085H11.7018V28.197H22.3999C23.4551 28.1995 24.5075 28.0879 25.5386 27.8644C26.5067 27.6633 27.4247 27.2701 28.2383 26.7079C29.0375 26.1394 29.6823 25.3801 30.1141 24.4995C30.5821 23.5751 30.8161 22.4122 30.8161 21.0108C30.8161 19.4637 30.4125 18.1351 29.6055 17.0251Z" fill="#10385B"/>
<path id="Vector_7" fill-rule="evenodd" clip-rule="evenodd" d="M4.21969 6.69922H0V11.1877H4.21969V6.69922ZM5.57339 11.1877V6.69922H10.2901V11.1877H5.57339Z" fill="#04BBF2"/>
<path id="Vector_8" fill-rule="evenodd" clip-rule="evenodd" d="M4.21969 12.3086H0V16.7971H4.21969V12.3086ZM5.57339 16.7971V12.3086H10.2901V16.7971H5.57339Z" fill="#04BBF2"/>
<path id="Vector_9" fill-rule="evenodd" clip-rule="evenodd" d="M4.21969 18.0039H0V22.4924H4.21969V18.0039ZM5.57339 22.4924V18.0039H10.2901V22.4924H5.57339Z" fill="#04BBF2"/>
<path id="Vector_10" fill-rule="evenodd" clip-rule="evenodd" d="M4.21969 23.7031H0V28.1916H4.21969V23.7031ZM5.57339 28.1916V23.7031H10.2901V28.1916H5.57339Z" fill="#10385B"/>
</g>
</svg>
